<?xml version="1.0" standalone="no"?>
<!DOCTYPE svg PUBLIC "-//W3C//DTD SVG 20010904//EN"
 "http://www.w3.org/TR/2001/REC-SVG-20010904/DTD/svg10.dtd">
<svg version="1.0" xmlns="http://www.w3.org/2000/svg"
 width="845.000000pt" height="406.000000pt" viewBox="0 0 845.000000 406.000000"
 preserveAspectRatio="xMidYMid meet">

<g transform="translate(0.000000,406.000000) scale(0.100000,-0.100000)"
fill="#000000" stroke="none">
<path d="M3158 2440 c-87 -14 -153 -47 -198 -98 -51 -57 -65 -104 -64 -218 0
-78 4 -98 28 -147 50 -102 137 -146 307 -154 304 -15 441 92 427 335 -8 146
-69 228 -198 266 -66 20 -224 28 -302 16z m222 -205 c39 -20 50 -43 50 -105 0
-43 -5 -56 -28 -80 -49 -49 -188 -53 -246 -7 -56 45 -45 165 18 193 43 18 170
18 206 -1z"/>
<path d="M3965 2443 c-104 -14 -187 -55 -231 -114 -78 -106 -68 -324 19 -417
34 -37 107 -70 182 -83 76 -13 257 -7 317 11 70 20 130 70 163 134 27 54 30
69 30 155 0 56 -6 112 -14 135 -19 54 -82 120 -139 144 -81 35 -218 49 -327
35z m204 -207 c34 -18 51 -54 51 -110 0 -76 -53 -116 -155 -116 -105 0 -155
40 -155 122 0 61 13 86 53 103 43 19 170 19 206 1z"/>
<path d="M1930 2135 l0 -306 113 3 112 3 -4 140 c-2 96 0 137 7 130 6 -5 44
-68 85 -140 l75 -130 78 -3 79 -2 80 142 80 143 3 -143 3 -142 114 0 115 0 -2
303 -3 302 -140 3 -140 2 -90 -170 c-49 -93 -93 -170 -97 -170 -4 0 -48 77
-99 170 l-91 170 -139 0 -139 0 0 -305z"/>
<path d="M4478 2433 c-2 -5 -4 -141 -3 -303 l0 -295 275 0 275 0 46 27 c98 58
142 140 143 268 1 77 -2 92 -32 153 -24 47 -46 77 -75 98 -72 52 -115 59 -383
59 -134 0 -244 -3 -246 -7z m478 -214 c30 -28 40 -80 25 -130 -17 -57 -48 -69
-176 -69 l-105 0 0 109 0 110 53 4 c102 9 178 -1 203 -24z"/>
<path d="M5240 2135 l0 -305 115 0 115 0 0 305 0 305 -115 0 -115 0 0 -305z"/>
<path d="M5500 2135 l0 -305 115 0 115 0 0 80 0 80 185 0 185 0 0 95 0 95
-186 0 -185 0 3 33 3 32 205 0 205 0 3 98 3 97 -326 0 -325 0 0 -305z"/>
<path d="M6177 2428 c6 -7 76 -100 156 -206 l147 -193 0 -99 0 -100 115 0 115
0 0 100 0 101 150 198 c83 109 150 201 150 204 0 4 -56 7 -125 7 l-125 0 -73
-99 c-39 -54 -76 -106 -82 -116 -8 -13 -24 3 -90 97 l-80 113 -134 3 c-108 2
-132 0 -124 -10z"/>
</g>
</svg>
